<mxfile host="app.diagrams.net" modified="2024-01-25T18:34:34.273Z" agent="Mozilla/5.0 (Windows NT 10.0; Win64; x64) AppleWebKit/537.36 (KHTML, like Gecko) Chrome/120.0.0.0 Safari/537.36" etag="nWx4u-zyfyF8EPf9h_Dx" version="23.0.2" type="device">
  <diagram name="Страница — 1" id="SyRg5tXbsEuh2-FKaKii">
    <mxGraphModel dx="2257" dy="781" grid="1" gridSize="10" guides="1" tooltips="1" connect="1" arrows="1" fold="1" page="1" pageScale="1" pageWidth="827" pageHeight="1169" math="0" shadow="0">
      <root>
        <mxCell id="0" />
        <mxCell id="1" parent="0" />
        <mxCell id="GRIO4pkYDHqeG1bbn13S-2" value="&lt;font style=&quot;font-size: 30px;&quot;&gt;Диаграмма&lt;br&gt;классов&lt;/font&gt;" style="text;html=1;align=center;verticalAlign=middle;resizable=0;points=[];autosize=1;strokeColor=none;fillColor=none;" parent="1" vertex="1">
          <mxGeometry x="315" y="145" width="180" height="90" as="geometry" />
        </mxCell>
        <mxCell id="GRIO4pkYDHqeG1bbn13S-3" value="" style="whiteSpace=wrap;html=1;aspect=fixed;" parent="1" vertex="1">
          <mxGeometry x="320" y="230" width="150" height="150" as="geometry" />
        </mxCell>
        <mxCell id="GRIO4pkYDHqeG1bbn13S-5" value="&lt;div style=&quot;text-align: left;&quot;&gt;-имя&lt;/div&gt;&lt;div style=&quot;text-align: left;&quot;&gt;-дата рождения&lt;/div&gt;&lt;div style=&quot;text-align: left;&quot;&gt;&lt;br&gt;&lt;/div&gt;" style="rounded=0;whiteSpace=wrap;html=1;" parent="1" vertex="1">
          <mxGeometry x="320" y="290" width="150" height="90" as="geometry" />
        </mxCell>
        <mxCell id="GRIO4pkYDHqeG1bbn13S-7" value="Животные" style="text;html=1;strokeColor=none;fillColor=none;align=center;verticalAlign=middle;whiteSpace=wrap;rounded=0;" parent="1" vertex="1">
          <mxGeometry x="315" y="235" width="160" height="50" as="geometry" />
        </mxCell>
        <mxCell id="GRIO4pkYDHqeG1bbn13S-8" value="" style="rounded=0;whiteSpace=wrap;html=1;" parent="1" vertex="1">
          <mxGeometry x="30" y="420" width="200" height="100" as="geometry" />
        </mxCell>
        <mxCell id="GRIO4pkYDHqeG1bbn13S-9" value="-грузоподъемность" style="rounded=0;whiteSpace=wrap;html=1;" parent="1" vertex="1">
          <mxGeometry x="580" y="420" width="210" height="100" as="geometry" />
        </mxCell>
        <mxCell id="GRIO4pkYDHqeG1bbn13S-10" value="" style="endArrow=classic;html=1;rounded=0;exitX=0.5;exitY=0;exitDx=0;exitDy=0;entryX=0.25;entryY=1;entryDx=0;entryDy=0;" parent="1" source="GRIO4pkYDHqeG1bbn13S-8" target="GRIO4pkYDHqeG1bbn13S-3" edge="1">
          <mxGeometry width="50" height="50" relative="1" as="geometry">
            <mxPoint x="390" y="340" as="sourcePoint" />
            <mxPoint x="440" y="290" as="targetPoint" />
          </mxGeometry>
        </mxCell>
        <mxCell id="GRIO4pkYDHqeG1bbn13S-12" value="" style="endArrow=classic;html=1;rounded=0;entryX=0.75;entryY=1;entryDx=0;entryDy=0;exitX=0.5;exitY=0;exitDx=0;exitDy=0;" parent="1" source="GRIO4pkYDHqeG1bbn13S-9" target="GRIO4pkYDHqeG1bbn13S-3" edge="1">
          <mxGeometry width="50" height="50" relative="1" as="geometry">
            <mxPoint x="540" y="430" as="sourcePoint" />
            <mxPoint x="440" y="290" as="targetPoint" />
          </mxGeometry>
        </mxCell>
        <mxCell id="GRIO4pkYDHqeG1bbn13S-13" value="" style="rounded=0;whiteSpace=wrap;html=1;" parent="1" vertex="1">
          <mxGeometry x="110" y="660" width="120" height="60" as="geometry" />
        </mxCell>
        <mxCell id="GRIO4pkYDHqeG1bbn13S-14" value="" style="rounded=0;whiteSpace=wrap;html=1;" parent="1" vertex="1">
          <mxGeometry x="207.5" y="565" width="120" height="60" as="geometry" />
        </mxCell>
        <mxCell id="GRIO4pkYDHqeG1bbn13S-15" value="&lt;br&gt;-порода&lt;br&gt;-выполняемые команды&lt;br&gt;" style="rounded=0;whiteSpace=wrap;html=1;" parent="1" vertex="1">
          <mxGeometry x="-40" y="585" width="120" height="115" as="geometry" />
        </mxCell>
        <mxCell id="GRIO4pkYDHqeG1bbn13S-16" value="Верблюд&lt;br&gt;-порода&lt;br&gt;-количество горбов" style="rounded=0;whiteSpace=wrap;html=1;" parent="1" vertex="1">
          <mxGeometry x="625" y="645" width="120" height="60" as="geometry" />
        </mxCell>
        <mxCell id="GRIO4pkYDHqeG1bbn13S-17" value="Лошадь&lt;br&gt;-порода&lt;br&gt;-скорость" style="rounded=0;whiteSpace=wrap;html=1;" parent="1" vertex="1">
          <mxGeometry x="460" y="580" width="120" height="60" as="geometry" />
        </mxCell>
        <mxCell id="GRIO4pkYDHqeG1bbn13S-18" value="" style="rounded=0;whiteSpace=wrap;html=1;" parent="1" vertex="1">
          <mxGeometry x="810" y="580" width="120" height="60" as="geometry" />
        </mxCell>
        <mxCell id="GRIO4pkYDHqeG1bbn13S-26" value="Собака" style="text;html=1;strokeColor=none;fillColor=none;align=center;verticalAlign=middle;whiteSpace=wrap;rounded=0;" parent="1" vertex="1">
          <mxGeometry x="-10" y="585" width="60" height="30" as="geometry" />
        </mxCell>
        <mxCell id="GRIO4pkYDHqeG1bbn13S-27" value="Кот&lt;br&gt;-порода&lt;br&gt;-наличие шерсти" style="text;html=1;strokeColor=none;fillColor=none;align=center;verticalAlign=middle;whiteSpace=wrap;rounded=0;" parent="1" vertex="1">
          <mxGeometry x="110" y="660" width="120" height="60" as="geometry" />
        </mxCell>
        <mxCell id="GRIO4pkYDHqeG1bbn13S-28" value="Хомяк&lt;br&gt;-порода&lt;br&gt;-пугливость" style="text;html=1;strokeColor=none;fillColor=none;align=center;verticalAlign=middle;whiteSpace=wrap;rounded=0;" parent="1" vertex="1">
          <mxGeometry x="210" y="565" width="120" height="65" as="geometry" />
        </mxCell>
        <mxCell id="GRIO4pkYDHqeG1bbn13S-29" value="Осел&lt;br&gt;-порода&lt;br&gt;-упрямость" style="text;html=1;strokeColor=none;fillColor=none;align=center;verticalAlign=middle;whiteSpace=wrap;rounded=0;" parent="1" vertex="1">
          <mxGeometry x="810" y="580" width="120" height="60" as="geometry" />
        </mxCell>
        <mxCell id="GRIO4pkYDHqeG1bbn13S-30" value="Pet" style="rounded=0;whiteSpace=wrap;html=1;" parent="1" vertex="1">
          <mxGeometry x="30" y="420" width="200" height="30" as="geometry" />
        </mxCell>
        <mxCell id="GRIO4pkYDHqeG1bbn13S-31" value="Pack animal" style="rounded=0;whiteSpace=wrap;html=1;" parent="1" vertex="1">
          <mxGeometry x="580" y="420" width="210" height="30" as="geometry" />
        </mxCell>
        <mxCell id="GRIO4pkYDHqeG1bbn13S-32" value="&lt;div style=&quot;text-align: left;&quot;&gt;-уровень эмпатии&lt;/div&gt;" style="text;html=1;strokeColor=none;fillColor=none;align=center;verticalAlign=middle;whiteSpace=wrap;rounded=0;" parent="1" vertex="1">
          <mxGeometry x="30" y="450" width="200" height="70" as="geometry" />
        </mxCell>
        <mxCell id="GRIO4pkYDHqeG1bbn13S-34" value="" style="endArrow=classic;html=1;rounded=0;exitX=0.5;exitY=0;exitDx=0;exitDy=0;entryX=0;entryY=1;entryDx=0;entryDy=0;" parent="1" source="GRIO4pkYDHqeG1bbn13S-15" edge="1" target="GRIO4pkYDHqeG1bbn13S-8">
          <mxGeometry width="50" height="50" relative="1" as="geometry">
            <mxPoint x="390" y="440" as="sourcePoint" />
            <mxPoint x="170" y="540" as="targetPoint" />
          </mxGeometry>
        </mxCell>
        <mxCell id="GRIO4pkYDHqeG1bbn13S-35" value="" style="endArrow=classic;html=1;rounded=0;exitX=0.5;exitY=0;exitDx=0;exitDy=0;entryX=0.5;entryY=1;entryDx=0;entryDy=0;" parent="1" source="GRIO4pkYDHqeG1bbn13S-13" target="GRIO4pkYDHqeG1bbn13S-8" edge="1">
          <mxGeometry width="50" height="50" relative="1" as="geometry">
            <mxPoint x="390" y="440" as="sourcePoint" />
            <mxPoint x="440" y="390" as="targetPoint" />
          </mxGeometry>
        </mxCell>
        <mxCell id="GRIO4pkYDHqeG1bbn13S-36" value="" style="endArrow=classic;html=1;rounded=0;entryX=0.788;entryY=0.99;entryDx=0;entryDy=0;entryPerimeter=0;exitX=0.5;exitY=0;exitDx=0;exitDy=0;" parent="1" target="GRIO4pkYDHqeG1bbn13S-8" edge="1" source="GRIO4pkYDHqeG1bbn13S-14">
          <mxGeometry width="50" height="50" relative="1" as="geometry">
            <mxPoint x="360" y="580" as="sourcePoint" />
            <mxPoint x="440" y="390" as="targetPoint" />
          </mxGeometry>
        </mxCell>
        <mxCell id="GRIO4pkYDHqeG1bbn13S-37" value="" style="endArrow=classic;html=1;rounded=0;exitX=0.5;exitY=0;exitDx=0;exitDy=0;entryX=0.2;entryY=1.022;entryDx=0;entryDy=0;entryPerimeter=0;" parent="1" source="GRIO4pkYDHqeG1bbn13S-17" target="GRIO4pkYDHqeG1bbn13S-9" edge="1">
          <mxGeometry width="50" height="50" relative="1" as="geometry">
            <mxPoint x="390" y="440" as="sourcePoint" />
            <mxPoint x="440" y="390" as="targetPoint" />
          </mxGeometry>
        </mxCell>
        <mxCell id="GRIO4pkYDHqeG1bbn13S-38" value="" style="endArrow=classic;html=1;rounded=0;exitX=0.5;exitY=0;exitDx=0;exitDy=0;entryX=1;entryY=1;entryDx=0;entryDy=0;" parent="1" source="GRIO4pkYDHqeG1bbn13S-18" edge="1" target="GRIO4pkYDHqeG1bbn13S-9">
          <mxGeometry width="50" height="50" relative="1" as="geometry">
            <mxPoint x="390" y="440" as="sourcePoint" />
            <mxPoint x="680" y="540" as="targetPoint" />
          </mxGeometry>
        </mxCell>
        <mxCell id="GRIO4pkYDHqeG1bbn13S-39" value="" style="endArrow=classic;html=1;rounded=0;exitX=0.5;exitY=0;exitDx=0;exitDy=0;entryX=0.5;entryY=1;entryDx=0;entryDy=0;" parent="1" source="GRIO4pkYDHqeG1bbn13S-16" target="GRIO4pkYDHqeG1bbn13S-9" edge="1">
          <mxGeometry width="50" height="50" relative="1" as="geometry">
            <mxPoint x="390" y="440" as="sourcePoint" />
            <mxPoint x="440" y="390" as="targetPoint" />
          </mxGeometry>
        </mxCell>
      </root>
    </mxGraphModel>
  </diagram>
</mxfile>
